<?xml version="1.0" encoding="UTF-8" standalone="no"?>
<!-- Created with Inkscape (http://www.inkscape.org/) -->

<svg
   id="svg3644"
   sodipodi:docname="RCB-logo.svg"
   viewBox="0 0 272.59385 271.41886"
   version="1.1"
   inkscape:version="1.1.2 (0a00cf5339, 2022-02-04)"
   width="272.59384"
   height="271.41885"
   inkscape:export-filename="/home/patrickb/Downloads/RCB-logo2.png"
   inkscape:export-xdpi="152.39999"
   inkscape:export-ydpi="152.39999"
   xmlns:inkscape="http://www.inkscape.org/namespaces/inkscape"
   xmlns:sodipodi="http://sodipodi.sourceforge.net/DTD/sodipodi-0.dtd"
   xmlns="http://www.w3.org/2000/svg"
   xmlns:svg="http://www.w3.org/2000/svg"
   xmlns:rdf="http://www.w3.org/1999/02/22-rdf-syntax-ns#"
   xmlns:cc="http://creativecommons.org/ns#"
   xmlns:dc="http://purl.org/dc/elements/1.1/">
  <defs
     id="defs1064">
	
	
	
	
	
	
	
	
	
	
	
	
	
	
	
	
	
	
	
	
	
	
	
	
	
	
	
	
	
	
	
	
	
	
	
	
	
	
	
	
	
	
	
	
	
	
	
	
	
	
	
	
	
	
	
	
	
	
	
</defs>
  <title
     id="title4427">Cartoon Robot</title>
  <sodipodi:namedview
     id="base"
     bordercolor="#666666"
     inkscape:pageshadow="2"
     inkscape:window-y="0"
     pagecolor="#ffffff"
     inkscape:window-height="1367"
     inkscape:window-maximized="1"
     inkscape:zoom="1.4142136"
     inkscape:window-x="0"
     showgrid="false"
     borderopacity="1.0"
     inkscape:current-layer="layer1"
     inkscape:cx="-100.05561"
     inkscape:cy="191.62594"
     inkscape:window-width="2560"
     inkscape:pageopacity="0.0"
     inkscape:document-units="mm"
     inkscape:pagecheckerboard="0"
     fit-margin-top="0"
     fit-margin-left="0"
     fit-margin-right="0"
     fit-margin-bottom="0" />
  <g
     id="layer1"
     inkscape:label="Layer 1"
     inkscape:groupmode="layer"
     transform="translate(-272.41751,-44.951733)">
    <rect
       style="fill:#ffffff;fill-opacity:1;stroke:none;stroke-width:2.02101;stroke-miterlimit:4;stroke-dasharray:none;stroke-opacity:1"
       id="rect18171"
       width="272.59384"
       height="271.41885"
       x="272.41751"
       y="44.951733"
       inkscape:export-filename="/home/patrickb/Downloads/rect18171.png"
       inkscape:export-xdpi="152.39999"
       inkscape:export-ydpi="152.39999" />
    <rect
       id="rect4394"
       style="fill:#a4a4a4;stroke:#484848;stroke-width:3.24464;stroke-linecap:round;stroke-linejoin:round"
       transform="matrix(0.79478796,0.60688722,0.60688722,-0.79478796,0,0)"
       ry="3.1311102"
       height="33.340408"
       width="20.314114"
       y="76.305244"
       x="497.5741" />
    <rect
       id="rect4402"
       style="fill:#a4a4a4;stroke:#484848;stroke-width:2.80679;stroke-linecap:round;stroke-linejoin:round"
       transform="matrix(0.79478796,0.60688722,0.60688722,-0.79478796,0,0)"
       ry="2.9844556"
       height="35.790733"
       width="26.341688"
       y="50.889797"
       x="494.66907" />
    <path
       id="path4404"
       sodipodi:nodetypes="ccccccc"
       style="opacity:0.63;fill:#ffffff;stroke-width:1.4034"
       d="m 442.80532,238.96311 -0.95356,1.57791 -17.28035,28.59394 0.63658,3.40239 24.16133,-29.64413 -5.10463,-3.04707 -1.45959,-0.88265 z" />
    <ellipse
       id="path4410"
       style="fill:#a4a4a4;stroke:#484848;stroke-width:2.83984;stroke-linecap:round;stroke-linejoin:round"
       transform="matrix(0.37479845,0.92710632,0.92710631,-0.37479847,0,0)"
       cx="423.21118"
       cy="290.02621"
       rx="23.443586"
       ry="23.443409" />
    <path
       id="path4412"
       sodipodi:nodetypes="cccccsccscccccccc"
       style="fill:#a4a4a4;stroke:#484848;stroke-width:2.83978;stroke-linecap:round;stroke-linejoin:round"
       d="m 467.64297,181.7432 c -1.45052,-0.79361 -1.97849,-2.59715 -1.18488,-4.04769 l 9.51483,-17.39044 c 5.91132,-10.9041 14.49875,-15.06719 26.12038,-12.80402 l -13.66076,24.96964 c -0.3968,0.72526 -0.45523,1.53557 -0.24071,2.26781 0.21426,0.73218 0.70054,1.38311 1.42578,1.77989 l 8.27194,4.52572 c 0.72527,0.39681 1.5356,0.45524 2.26782,0.24072 0.73218,-0.21426 1.38312,-0.70054 1.77989,-1.42579 l 13.5774,-24.81636 c 7.23741,7.98021 8.45956,18.40673 2.70404,28.37487 l -9.51483,17.39043 c -0.7936,1.45053 -2.59716,1.97847 -4.04769,1.18487 l -14.86584,4.46485 -18.50612,-10.12493 -3.64045,-14.58908 z" />
    <ellipse
       id="path4420"
       style="fill:#a4a4a4;stroke:#484848;stroke-width:2.80676;stroke-linecap:round;stroke-linejoin:round"
       transform="matrix(0.15832186,0.98738756,0.98738915,-0.15831191,0,0)"
       cx="284.142"
       cy="438.16766"
       rx="16.125748"
       ry="15.877663" />
    <rect
       id="rect4181"
       style="fill:#0000ff;fill-opacity:1;stroke:#484848;stroke-width:2.8068;stroke-linecap:round;stroke-linejoin:round"
       height="39.695"
       width="18.075001"
       y="209.75"
       x="434.29999" />
    <rect
       id="rect4274"
       style="fill:#e3e3e3"
       ry="0"
       height="9.1222"
       width="21.927999"
       y="211.16"
       x="429.12" />
    <rect
       id="rect3654"
       style="fill:#a4a4a4;stroke:#484848;stroke-width:2.8068;stroke-linecap:round;stroke-linejoin:round"
       ry="0"
       height="19.288"
       width="51.200001"
       y="306.25653"
       x="295.60245"
       transform="rotate(-5.8232348)" />
    <rect
       id="rect4203"
       style="fill:#a4a4a4;stroke:#484848;stroke-width:2.8068;stroke-linecap:round;stroke-linejoin:round"
       ry="0"
       height="19.145"
       width="59.828999"
       y="325.61655"
       x="291.46243"
       transform="rotate(-5.8232348)" />
    <rect
       id="rect4179"
       style="fill:#ff3366;fill-opacity:1;stroke:#484848;stroke-width:2.8068;stroke-linecap:round;stroke-linejoin:round"
       height="39.695"
       width="18.075001"
       y="220.40518"
       x="264.08868"
       transform="rotate(-2.5234544)" />
    <rect
       id="rect4270"
       style="fill:#e3e3e3"
       ry="0"
       height="9.1222"
       width="21.927999"
       y="221.68518"
       x="265.1987"
       transform="rotate(-2.5234544)" />
    <path
       id="rect4194"
       sodipodi:nodetypes="ccccc"
       style="fill:#a4a4a4;stroke:#484848;stroke-width:2.80819;stroke-miterlimit:4;stroke-dasharray:none"
       d="m 335.12519,142.36745 6.42165,0.60836 4.82014,43.81793 -24.69841,-2.33984 13.45682,-42.08643 z" />
    <rect
       id="rect4166"
       style="fill:#a4a4a4;stroke:#484848;stroke-width:2.60183;stroke-linecap:round;stroke-linejoin:round"
       height="87.084"
       width="145.48518"
       y="184.992"
       x="289.58484" />
    <path
       id="rect4168"
       sodipodi:nodetypes="ccccccccc"
       style="fill:#a4a4a4;stroke:#484848;stroke-width:2.63119;stroke-linecap:round;stroke-linejoin:round"
       d="m 282.67173,233.73959 20.30595,1.37852 17.45333,24.23478 81.22288,5.514 23.15767,-21.47782 20.30594,1.37851 -3.21108,47.30014 -162.44752,-11.02812 3.21108,-47.30014 z" />
    <ellipse
       id="path4197"
       style="fill:#00ff00;fill-opacity:1;stroke:#484848;stroke-width:2.80819;stroke-miterlimit:4;stroke-dasharray:none;stroke-opacity:1"
       cx="337.5"
       cy="142.5564"
       rx="15.62957"
       ry="16.621923" />
    <ellipse
       id="path4197-3"
       style="fill:#ffff00;fill-opacity:1;stroke:#484848;stroke-width:2.98627;stroke-opacity:1"
       cx="328.01529"
       cy="222.658"
       rx="17.692207"
       ry="16.621923" />
    <ellipse
       id="path4197-3-2"
       style="fill:#ff3366;fill-opacity:1;stroke:#484848;stroke-width:2.98627;stroke-opacity:1"
       cx="390.2204"
       cy="221.658"
       rx="17.692207"
       ry="16.621923" />
    <rect
       x="373.43835"
       y="281.48804"
       stroke="#000000"
       stroke-width="0.171828"
       stroke-miterlimit="10"
       width="0.98799258"
       height="0.79454857"
       id="rect15995"
       transform="rotate(-21.019295)" />
    <path
       id="path21"
       d="m 471.99358,167.71693 c -7.97976,12.40824 -23.37576,16.71359 -34.41178,9.61024 -11.00833,-7.09104 -13.46918,-22.89676 -5.48174,-35.28501 7.95967,-12.40035 23.37562,-16.71353 34.3841,-9.62255 11.03601,7.10335 13.49681,22.90892 5.50942,35.29732 z"
       style="stroke-width:0.162285" />
    <path
       id="path25"
       fill="none"
       stroke="#000000"
       stroke-width="0.739144"
       stroke-linejoin="round"
       stroke-miterlimit="10"
       d="m 471.99358,167.71693 c -7.97976,12.40824 -23.37576,16.71359 -34.41178,9.61024 -11.00833,-7.09104 -13.46918,-22.89676 -5.48174,-35.28501 7.95967,-12.40035 23.37562,-16.71353 34.3841,-9.62255 11.03601,7.10335 13.49681,22.90892 5.50942,35.29732 z" />
    <path
       id="path27"
       d="m 431.35932,80.29168 c 17.69711,4.796952 28.57903,21.43957 24.29154,37.16917 -4.26733,15.72186 -22.08283,24.5694 -39.75994,19.76477 -17.69711,-4.79695 -28.58677,-21.45972 -24.31938,-37.18143 4.28749,-15.729603 22.08299,-24.569457 39.78778,-19.75251 z"
       style="stroke-width:0.162285" />
    <path
       id="path31"
       fill="none"
       stroke="#000000"
       stroke-width="1.23515"
       stroke-linejoin="round"
       stroke-miterlimit="10"
       d="m 431.35932,80.29168 c 17.69711,4.796952 28.57903,21.43957 24.29154,37.16917 -4.26733,15.72186 -22.08283,24.5694 -39.75994,19.76477 -17.69711,-4.79695 -28.58677,-21.45972 -24.31938,-37.18143 4.28749,-15.729603 22.08299,-24.569457 39.78778,-19.75251 z" />
    <path
       id="path33"
       fill="#00ff00"
       d="m 431.05667,115.61349 c -6.8061,-2.26291 -10.26551,-10.36779 -7.70313,-18.071308 2.5747,-7.731192 10.16618,-12.167007 16.98002,-9.88395 6.8261,2.255225 10.27791,10.339902 7.70328,18.071248 -2.55476,7.72336 -10.15398,12.13902 -16.98017,9.88401 z"
       style="stroke-width:0.162285" />
    <path
       id="path37"
       fill="none"
       d="m 431.05667,115.61349 c -6.8061,-2.26291 -10.26551,-10.36779 -7.70313,-18.071308 2.5747,-7.731192 10.16618,-12.167007 16.98002,-9.88395 6.8261,2.255225 10.27791,10.339902 7.70328,18.071248 -2.55476,7.72336 -10.15398,12.13902 -16.98017,9.88401 z"
       style="stroke-width:0.162285" />
    <path
       id="path39"
       d="m 426.31757,116.21473 c -6.83378,-2.27522 -10.28559,-10.3599 -7.73095,-18.083558 2.57469,-7.731192 10.19406,-12.154602 16.99995,-9.891786 6.82625,2.255167 10.28565,10.36005 7.71096,18.091244 -2.55443,7.72375 -10.1738,12.14716 -16.97996,9.8841 z"
       style="stroke-width:0.162285" />
    <path
       id="path43"
       fill="none"
       d="m 426.31757,116.21473 c -6.83378,-2.27522 -10.28559,-10.3599 -7.73095,-18.083558 2.57469,-7.731192 10.19406,-12.154602 16.99995,-9.891786 6.82625,2.255167 10.28565,10.36005 7.71096,18.091244 -2.55443,7.72375 -10.1738,12.14716 -16.97996,9.8841 z"
       style="stroke-width:0.162285" />
    <path
       id="path47"
       fill="none"
       stroke="#0000ff"
       stroke-width="3.70548"
       stroke-linejoin="round"
       stroke-miterlimit="10"
       d="m 442.0704,124.93421 c -10.47476,-2.34889 -23.65975,-2.22973 -31.46249,-7.74513 -5.80778,-4.0961 -10.83025,-4.65128 -8.51478,-11.79973 2.23045,-6.770674 2.44991,-13.205698 7.95014,-16.377756 6.91535,-1.644704 12.25128,-3.027788 19.27387,2.67247 1.16758,4.475581 6.09333,12.983306 2.17592,19.435746 l -7.58697,9.05893" />
    <path
       id="path49"
       fill="#ff3366"
       d="m 421.06641,112.54922 c -4.77183,1.83358 -10.09735,-0.46903 -11.90013,-5.16073 -1.80279,-4.6917 0.6106,-9.967814 5.38243,-11.801393 4.77183,-1.833578 10.09745,0.468824 11.90023,5.160523 1.80279,4.69169 -0.61069,9.96802 -5.38253,11.8016 z"
       style="stroke-width:0.162285" />
    <path
       id="path53"
       fill="none"
       d="m 421.06641,112.54922 c -4.77183,1.83358 -10.09735,-0.46903 -11.90013,-5.16073 -1.80279,-4.6917 0.6106,-9.967814 5.38243,-11.801393 4.77183,-1.833578 10.09745,0.468824 11.90023,5.160523 1.80279,4.69169 -0.61069,9.96802 -5.38253,11.8016 z"
       style="stroke-width:0.162285" />
    <path
       id="path55"
       fill="#0000ff"
       d="m 423.49844,107.38086 c -1.2221,2.14936 -3.99644,2.89325 -6.20131,1.64659 -2.20488,-1.24667 -2.98882,-4.00579 -1.74687,-6.16278 1.22195,-2.1493 3.99643,-2.89325 6.18137,-1.63875 2.20482,1.24652 2.9887,4.00548 1.76681,6.15494 z"
       style="stroke-width:0.162285" />
    <path
       id="path59"
       fill="none"
       d="m 423.49844,107.38086 c -1.2221,2.14936 -3.99644,2.89325 -6.20131,1.64659 -2.20488,-1.24667 -2.98882,-4.00579 -1.74687,-6.16278 1.22195,-2.1493 3.99643,-2.89325 6.18137,-1.63875 2.20482,1.24652 2.9887,4.00548 1.76681,6.15494 z"
       style="stroke-width:0.162285" />
    <path
       id="path63"
       fill="none"
       stroke="#0000ff"
       stroke-width="3.70548"
       stroke-linejoin="round"
       stroke-miterlimit="10"
       d="m 443.0281,125.21051 c -10.50259,-2.36114 -23.13401,2.49249 -30.92897,-3.00313 -5.81547,-4.11609 -14.94624,-8.77627 -12.62318,-15.90451 1.57237,-7.944456 4.99786,-14.299848 11.39363,-16.757426 6.92761,-1.672535 14.68295,-1.730225 18.27455,2.826277 1.19526,4.487895 4.68903,10.945699 0.77162,17.398139 l -6.30132,10.72801" />
    <path
       id="path65"
       fill="#0000ff"
       d="m 447.60928,125.93525 c -0.18849,1.24594 -2.80566,1.86042 -5.8187,1.38448 -3.03313,-0.46804 -5.31971,-1.8676 -5.13106,-3.1136 0.21633,-1.23369 2.80567,-1.86042 5.83886,-1.39223 3.02072,0.49594 5.31955,1.86767 5.1109,3.12135 z"
       style="stroke-width:0.162285" />
    <path
       id="path69"
       fill="none"
       d="m 447.60928,125.93525 c -0.18849,1.24594 -2.80566,1.86042 -5.8187,1.38448 -3.03313,-0.46804 -5.31971,-1.8676 -5.13106,-3.1136 0.21633,-1.23369 2.80567,-1.86042 5.83886,-1.39223 3.02072,0.49594 5.31955,1.86767 5.1109,3.12135 z"
       style="stroke-width:0.162285" />
    <path
       id="path71"
       d="m 523.4756,107.13813 c 14.20769,3.85993 22.97196,17.26634 19.52422,29.91213 -3.43976,12.66567 -17.75737,19.77797 -31.98506,15.92572 -14.21526,-3.87963 -22.97181,-17.2664 -19.52416,-29.91198 3.43991,-12.66573 17.74978,-19.79817 31.985,-15.92587 z"
       style="stroke-width:0.162285" />
    <path
       id="path75"
       fill="none"
       stroke="#000000"
       stroke-width="0.739144"
       stroke-linejoin="round"
       stroke-miterlimit="10"
       d="m 523.4756,107.13813 c 14.20769,3.85993 22.97196,17.26634 19.52422,29.91213 -3.43976,12.66567 -17.75737,19.77797 -31.98506,15.92572 -14.21526,-3.87963 -22.97181,-17.2664 -19.52416,-29.91198 3.43991,-12.66573 17.74978,-19.79817 31.985,-15.92587 z" />
    <path
       id="path77"
       fill="#ffff00"
       d="m 484.45224,143.07196 c -12.83184,4.93064 -26.40696,0.62076 -30.35149,-9.64474 -3.93684,-10.2455 3.25161,-22.55674 16.08345,-27.48738 12.83183,-4.93064 26.41479,-0.60082 30.35163,9.64468 3.94453,10.2655 -3.25176,22.5568 -16.08359,27.48744 z"
       style="stroke-width:0.162285" />
    <path
       id="path81"
       fill="none"
       stroke="#000000"
       stroke-width="1.48316"
       stroke-linejoin="round"
       stroke-miterlimit="10"
       d="m 484.45224,143.07196 c -12.83184,4.93064 -26.40696,0.62076 -30.35149,-9.64474 -3.93684,-10.2455 3.25161,-22.55674 16.08345,-27.48738 12.83183,-4.93064 26.41479,-0.60082 30.35163,9.64468 3.94453,10.2655 -3.25176,22.5568 -16.08359,27.48744 z" />
    <path
       id="path83"
       fill="#ffffff"
       d="m 461.31409,130.40254 c -5.13283,1.97229 -10.88539,-0.6033 -12.84994,-5.71598 -1.97229,-5.13282 0.58309,-10.87779 5.71592,-12.85008 5.13267,-1.97224 10.89785,0.57556 12.87014,5.70838 1.96449,5.11253 -0.6033,10.88539 -5.73612,12.85768 z"
       style="stroke-width:0.162285" />
    <path
       id="path87"
       fill="none"
       stroke="#000000"
       stroke-width="1.73116"
       stroke-linejoin="round"
       stroke-miterlimit="10"
       d="m 461.31409,130.40254 c -5.13283,1.97229 -10.88539,-0.6033 -12.84994,-5.71598 -1.97229,-5.13282 0.58309,-10.87779 5.71592,-12.85008 5.13267,-1.97224 10.89785,0.57556 12.87014,5.70838 1.96449,5.11253 -0.6033,10.88539 -5.73612,12.85768 z" />
    <path
       id="path89"
       d="m 531.0267,94.273068 c -9.85412,15.314672 -28.89004,20.627312 -42.49607,11.865442 -13.62638,-8.75422 -16.66285,-28.273591 -6.816,-43.608076 9.85402,-15.314465 28.88994,-20.627103 42.49612,-11.865292 13.63392,8.774276 16.67039,28.293648 6.81595,43.607926 z"
       style="stroke-width:0.162285" />
    <path
       id="path93"
       fill="none"
       stroke="#000000"
       stroke-width="1.23515"
       stroke-linejoin="round"
       stroke-miterlimit="10"
       d="m 531.0267,94.273068 c -9.85412,15.314672 -28.89004,20.627312 -42.49607,11.865442 -13.62638,-8.75422 -16.66285,-28.273591 -6.816,-43.608076 9.85402,-15.314465 28.88994,-20.627103 42.49612,-11.865292 13.63392,8.774276 16.67039,28.293648 6.81595,43.607926 z" />
    <path
       id="path95"
       fill="#00ff00"
       d="m 531.05749,85.310563 c -3.52723,6.210544 -12.09574,7.984216 -19.12948,3.990966 -7.03384,-3.993039 -9.88873,-12.261188 -6.36166,-18.471674 3.52722,-6.210544 12.08821,-8.004271 19.12963,-3.991025 7.03384,3.99304 9.88858,12.261247 6.36151,18.471733 z"
       style="stroke-width:0.162285" />
    <path
       id="path99"
       fill="none"
       d="m 531.05749,85.310563 c -3.52723,6.210544 -12.09574,7.984216 -19.12948,3.990966 -7.03384,-3.993039 -9.88873,-12.261188 -6.36166,-18.471674 3.52722,-6.210544 12.08821,-8.004271 19.12963,-3.991025 7.03384,3.99304 9.88858,12.261247 6.36151,18.471733 z"
       style="stroke-width:0.162285" />
    <path
       id="path101"
       d="m 526.76662,86.959328 c -3.52707,6.210486 -12.09558,7.984158 -19.12932,3.990909 -7.03384,-3.99304 -9.88858,-12.261247 -6.35392,-18.451527 3.52728,-6.210393 12.08821,-8.004271 19.12189,-4.011173 7.03384,3.99304 9.86858,12.268931 6.36135,18.471791 z"
       style="stroke-width:0.162285" />
    <path
       id="path105"
       fill="none"
       d="m 526.76662,86.959328 c -3.52707,6.210486 -12.09558,7.984158 -19.12932,3.990909 -7.03384,-3.99304 -9.88858,-12.261247 -6.35392,-18.451527 3.52728,-6.210393 12.08821,-8.004271 19.12189,-4.011173 7.03384,3.99304 9.86858,12.268931 6.36135,18.471791 z"
       style="stroke-width:0.162285" />
    <path
       id="path109"
       fill="none"
       stroke="#0000ff"
       stroke-width="3.70548"
       stroke-linejoin="round"
       stroke-miterlimit="10"
       d="m 522.52418,58.791518 c -8.08501,-10.262318 -22.69185,-0.07051 -27.15825,6.270737 -6.1742,8.723306 -5.55543,7.21989 -7.64025,16.465745 -1.55038,6.923481 3.21586,13.398597 9.68685,17.124944 6.12243,3.538136 6.8774,0.532791 13.08249,-2.840915 6.20478,-3.37359 7.90454,-4.279855 7.51625,-10.021161 -0.48807,-7.198624 -9.4618,-11.389935 -16.63643,-13.534187 l -7.89204,-1.914656" />
    <path
       id="path111"
       fill="#ff3366"
       d="m 504.35512,93.246885 c -4.21042,1.617857 -8.924,-0.528724 -10.56497,-4.799286 -1.64096,-4.270563 0.42237,-9.021174 4.63279,-10.639031 4.19028,-1.610115 8.9037,0.536523 10.54467,4.807086 1.64102,4.270714 -0.42221,9.021116 -4.61249,10.631231 z"
       style="stroke-width:0.162285" />
    <path
       id="path115"
       fill="none"
       d="m 504.35512,93.246885 c -4.21042,1.617857 -8.924,-0.528724 -10.56497,-4.799286 -1.64096,-4.270563 0.42237,-9.021174 4.63279,-10.639031 4.19028,-1.610115 8.9037,0.536523 10.54467,4.807086 1.64102,4.270714 -0.42221,9.021116 -4.61249,10.631231 z"
       style="stroke-width:0.162285" />
    <path
       id="path117"
       fill="#0000ff"
       d="m 505.75817,88.934273 c -1.22969,2.129159 -3.98418,2.865421 -6.16891,1.611012 -2.17704,-1.234412 -2.98128,-3.985727 -1.77137,-6.10711 1.2018,-2.141565 3.98411,-2.865572 6.16116,-1.63116 2.18482,1.254199 2.98116,3.985425 1.77912,6.127258 z"
       style="stroke-width:0.162285" />
    <path
       id="path121"
       fill="none"
       d="m 505.75817,88.934273 c -1.22969,2.129159 -3.98418,2.865421 -6.16891,1.611012 -2.17704,-1.234412 -2.98128,-3.985727 -1.77137,-6.10711 1.2018,-2.141565 3.98411,-2.865572 6.16116,-1.63116 2.18482,1.254199 2.98116,3.985425 1.77912,6.127258 z"
       style="stroke-width:0.162285" />
    <path
       id="path125"
       fill="none"
       stroke="#0000ff"
       stroke-width="3.70548"
       stroke-linejoin="round"
       stroke-miterlimit="10"
       d="m 523.48814,58.006823 c -8.08489,-10.262015 -27.04202,-0.492667 -31.50849,5.848424 -6.1741,8.723096 -5.36716,7.170501 -7.45184,16.416298 -1.55806,6.903485 5.52346,15.572247 11.99445,19.298594 6.12252,3.537931 8.70332,1.211751 14.8881,-2.154155 6.20478,-3.37359 8.55215,-4.09163 8.17618,-9.860616 -0.48024,-7.178686 -4.7063,-14.643709 -11.90881,-16.800366 l -14.19499,-0.413128" />
    <path
       id="path127"
       fill="#ffffff"
       d="m 492.05029,118.59214 c -5.13267,1.97223 -10.90538,-0.59562 -12.86993,-5.70829 -1.97229,-5.13283 0.60324,-10.88554 5.73591,-12.85778 5.13283,-1.972287 10.87771,0.58331 12.85,5.71613 1.96449,5.11253 -0.58315,10.87765 -5.71598,12.84994 z"
       style="stroke-width:0.162285" />
    <path
       id="path131"
       fill="none"
       stroke="#000000"
       stroke-width="1.73116"
       stroke-linejoin="round"
       stroke-miterlimit="10"
       d="m 492.05029,118.59214 c -5.13267,1.97223 -10.90538,-0.59562 -12.86993,-5.70829 -1.97229,-5.13283 0.60324,-10.88554 5.73591,-12.85778 5.13283,-1.972287 10.87771,0.58331 12.85,5.71613 1.96449,5.11253 -0.58315,10.87765 -5.71598,12.84994 z" />
    <path
       id="path133"
       d="m 459.79969,125.62298 c -2.56634,0.98611 -5.4528,-0.29786 -6.43886,-2.86404 -0.98611,-2.56634 0.2978,-5.45295 2.86414,-6.43907 2.56633,-0.98611 5.4328,0.30554 6.41897,2.87203 0.98606,2.56619 -0.27792,5.44496 -2.84425,6.43108 z"
       style="stroke-width:0.162285" />
    <path
       id="path137"
       fill="none"
       d="m 459.79969,125.62298 c -2.56634,0.98611 -5.4528,-0.29786 -6.43886,-2.86404 -0.98611,-2.56634 0.2978,-5.45295 2.86414,-6.43907 2.56633,-0.98611 5.4328,0.30554 6.41897,2.87203 0.98606,2.56619 -0.27792,5.44496 -2.84425,6.43108 z"
       style="stroke-width:0.162285" />
    <path
       id="path139"
       d="m 490.39589,113.26814 c -2.58649,0.99386 -5.45301,-0.29794 -6.43138,-2.84413 -0.98612,-2.56634 0.2856,-5.42497 2.87208,-6.41883 2.56619,-0.98605 5.42491,0.28545 6.41102,2.85179 0.97844,2.54634 -0.28554,5.42512 -2.85172,6.41117 z"
       style="stroke-width:0.162285" />
    <path
       id="path143"
       fill="none"
       d="m 490.39589,113.26814 c -2.58649,0.99386 -5.45301,-0.29794 -6.43138,-2.84413 -0.98612,-2.56634 0.2856,-5.42497 2.87208,-6.41883 2.56619,-0.98605 5.42491,0.28545 6.41102,2.85179 0.97844,2.54634 -0.28554,5.42512 -2.85172,6.41117 z"
       style="stroke-width:0.162285" />
    <path
       id="path147"
       fill="none"
       stroke="#ff3366"
       stroke-width="2.22232"
       stroke-linejoin="round"
       stroke-miterlimit="10"
       d="m 471.29386,132.48126 c 1.51996,6.71015 21.74999,4.20608 15.73406,-4.80329 l -0.20804,-0.54141" />
    <path
       id="path151"
       fill="none"
       stroke="#000000"
       stroke-width="1.73116"
       stroke-linejoin="round"
       stroke-miterlimit="10"
       d="m 467.23552,106.88876 c -2.32243,-4.90615 -2.68115,-11.349183 -6.78198,-15.134734 l -3.7244,-3.884119 -0.89291,5.221257 2.09118,-0.366296" />
    <path
       id="path155"
       fill="none"
       stroke="#000000"
       stroke-width="1.73116"
       stroke-linejoin="round"
       stroke-miterlimit="10"
       d="m 472.88961,104.71617 c -1.5606,-5.198875 -5.62863,-10.21661 -5.11774,-15.774213 l 0.16516,-5.37869 4.15948,3.279876 -1.79854,1.128332" />
    <path
       id="path157"
       fill="#ff3366"
       d="m 445.4943,172.46898 c -7.02042,-2.34155 -10.50594,-10.87364 -7.79694,-19.09368 2.73662,-8.20788 10.64003,-12.97027 17.6804,-10.63656 7.02042,2.34154 10.506,10.87378 7.76926,19.08136 -2.70915,8.2201 -10.6123,12.98273 -17.65272,10.64888 z"
       style="stroke-width:0.162285" />
    <path
       id="path161"
       fill="none"
       d="m 445.4943,172.46898 c -7.02042,-2.34155 -10.50594,-10.87364 -7.79694,-19.09368 2.73662,-8.20788 10.64003,-12.97027 17.6804,-10.63656 7.02042,2.34154 10.506,10.87378 7.76926,19.08136 -2.70915,8.2201 -10.6123,12.98273 -17.65272,10.64888 z"
       style="stroke-width:0.162285" />
    <path
       id="path165"
       fill="none"
       stroke="#000000"
       stroke-width="1.48316"
       stroke-linejoin="round"
       stroke-miterlimit="10"
       d="m 479.71748,145.12148 2.30344,5.99463 5.38375,4.19019 v 0" />
    <path
       id="path169"
       fill="none"
       stroke="#000000"
       stroke-width="1.48316"
       stroke-linejoin="round"
       stroke-miterlimit="10"
       d="m 487.0355,142.30952 2.31113,6.01463 5.38374,4.1902 v 0" />
    <path
       id="path171"
       fill="#0000ff"
       d="m 449.01479,162.94754 c -3.16109,-1.0404 -4.49045,-5.63793 -2.95144,-10.25592 1.53127,-4.63813 5.32417,-7.5222 8.51294,-6.46948 3.14095,1.04814 4.47025,5.64552 2.95907,10.27576 -1.53889,4.61829 -5.35194,7.5101 -8.52057,6.44964 z"
       style="stroke-width:0.162285" />
    <path
       id="path175"
       fill="none"
       d="m 449.01479,162.94754 c -3.16109,-1.0404 -4.49045,-5.63793 -2.95144,-10.25592 1.53127,-4.63813 5.32417,-7.5222 8.51294,-6.46948 3.14095,1.04814 4.47025,5.64552 2.95907,10.27576 -1.53889,4.61829 -5.35194,7.5101 -8.52057,6.44964 z"
       style="stroke-width:0.162285" />
    <path
       id="path177"
       fill="#ff3366"
       d="m 532.81849,138.93756 c -3.66627,6.44774 -12.72488,8.20285 -20.26138,3.91964 -7.50862,-4.27079 -10.64098,-12.96153 -6.98739,-19.38162 3.66606,-6.44783 12.72498,-8.20305 20.25364,-3.93979 7.51651,4.29089 10.64119,12.96163 6.99513,19.40177 z"
       style="stroke-width:0.162285" />
    <path
       id="path181"
       fill="none"
       d="m 532.81849,138.93756 c -3.66627,6.44774 -12.72488,8.20285 -20.26138,3.91964 -7.50862,-4.27079 -10.64098,-12.96153 -6.98739,-19.38162 3.66606,-6.44783 12.72498,-8.20305 20.25364,-3.93979 7.51651,4.29089 10.64119,12.96163 6.99513,19.40177 z"
       style="stroke-width:0.162285" />
    <path
       id="path183"
       fill="#0000ff"
       d="m 523.31399,135.04217 c -1.65083,2.88956 -6.41905,3.29511 -10.62694,0.90815 -4.23542,-2.39934 -6.3264,-6.70404 -4.65567,-9.60107 1.62315,-2.90188 6.39158,-3.30733 10.627,-0.908 4.20789,2.38696 6.29902,6.69161 4.65561,9.60092 z"
       style="stroke-width:0.162285" />
    <path
       id="path187"
       fill="none"
       d="m 523.31399,135.04217 c -1.65083,2.88956 -6.41905,3.29511 -10.62694,0.90815 -4.23542,-2.39934 -6.3264,-6.70404 -4.65567,-9.60107 1.62315,-2.90188 6.39158,-3.30733 10.627,-0.908 4.20789,2.38696 6.29902,6.69161 4.65561,9.60092 z"
       style="stroke-width:0.162285" />
    <text
       transform="rotate(-21.019295)"
       fill="#808080"
       font-family="ArialMT"
       font-size="3.43663px"
       id="text16050"
       x="456.508"
       y="289.31686"
       style="stroke-width:0.162285">T</text>
    <text
       transform="rotate(-21.019295)"
       fill="#808080"
       font-family="ArialMT"
       font-size="3.43663px"
       id="text16052"
       x="458.59042"
       y="289.31686"
       style="stroke-width:0.162285">M</text>
    <path
       id="path195"
       fill="#0000ff"
       d="m 527.21298,60.993516 c -0.89936,1.312034 -4.20099,0.624834 -7.40631,-1.549137 -3.21767,-2.14593 -5.08583,-4.971744 -4.2064,-6.275944 0.87953,-1.304409 4.201,-0.624834 7.40626,1.548985 3.19773,2.153765 5.08583,4.971744 4.20645,6.276096 z"
       style="stroke-width:0.162285" />
    <path
       id="path199"
       fill="none"
       d="m 527.21298,60.993516 c -0.89936,1.312034 -4.20099,0.624834 -7.40631,-1.549137 -3.21767,-2.14593 -5.08583,-4.971744 -4.2064,-6.275944 0.87953,-1.304409 4.201,-0.624834 7.40626,1.548985 3.19773,2.153765 5.08583,4.971744 4.20645,6.276096 z"
       style="stroke-width:0.162285" />
    <rect
       x="426.02948"
       y="282.28259"
       stroke="#000000"
       stroke-width="0.171828"
       stroke-miterlimit="10"
       width="0.98799258"
       height="0.79471087"
       id="rect16056"
       transform="rotate(-21.019295)" />
  </g>
  <metadata
     id="metadata1061">
    <rdf:RDF>
      <cc:Work>
        <dc:format>image/svg+xml</dc:format>
        <dc:type
           rdf:resource="http://purl.org/dc/dcmitype/StillImage" />
        <cc:license
           rdf:resource="http://creativecommons.org/publicdomain/zero/1.0/" />
        <dc:publisher>
          <cc:Agent
             rdf:about="http://openclipart.org/">
            <dc:title>Openclipart</dc:title>
          </cc:Agent>
        </dc:publisher>
        <dc:title>Cartoon Robot</dc:title>
        <dc:date>2012-05-18T06:33:38</dc:date>
        <dc:description>Simple cartoon robot doodle</dc:description>
        <dc:source>https://openclipart.org/detail/170101/cartoon-robot-by-sirrob01</dc:source>
        <dc:creator>
          <cc:Agent>
            <dc:title>Sirrob01</dc:title>
          </cc:Agent>
        </dc:creator>
        <dc:subject>
          <rdf:Bag>
            <rdf:li>android</rdf:li>
            <rdf:li>artificial</rdf:li>
            <rdf:li>cartoon</rdf:li>
            <rdf:li>comic</rdf:li>
            <rdf:li>doodle</rdf:li>
            <rdf:li>icon</rdf:li>
            <rdf:li>robot</rdf:li>
            <rdf:li>sci-fi</rdf:li>
            <rdf:li>science</rdf:li>
            <rdf:li>technology</rdf:li>
            <rdf:li>toy</rdf:li>
          </rdf:Bag>
        </dc:subject>
      </cc:Work>
      <cc:License
         rdf:about="http://creativecommons.org/licenses/publicdomain/">
        <cc:permits
           rdf:resource="http://creativecommons.org/ns#Reproduction" />
        <cc:permits
           rdf:resource="http://creativecommons.org/ns#Distribution" />
        <cc:permits
           rdf:resource="http://creativecommons.org/ns#DerivativeWorks" />
      </cc:License>
    </rdf:RDF>
  </metadata>
</svg>
